<svg xmlns="http://www.w3.org/2000/svg" xmlns:xlink="http://www.w3.org/1999/xlink" version="1.1" style="enable-background:new 0 0 455.978 455.978;" xml:space="preserve" width="455.978" height="455.978"><rect id="backgroundrect" width="100%" height="100%" x="0" y="0" fill="none" stroke="none"/>
















<g class="currentLayer" style=""><title>Layer 1</title><g id="svg_1" class="selected" fill-opacity="1" fill="#1082b7">
	<path d="M335.954,169.698V58.679H144.918v111.02H335.954z M159.918,73.679h161.036v81.02H159.918V73.679z" id="svg_2" fill="#1082b7"/>
	<rect x="175.93899536132812" y="89.51899719238281" width="128.9929962158203" height="15" id="svg_3" fill="#1082b7"/>
	<rect x="175.93899536132812" y="119.51699829101562" width="128.9929962158203" height="15" id="svg_4" fill="#1082b7"/>
	<path d="M391.076,0H104.224C82.542,0,64.902,17.64,64.902,39.323c0,0,0.003,332.512,0.003,332.514   c0,21.68,17.638,39.318,39.318,39.318h22.913v44.823h55.897v-44.823h208.037L391.076,0z M376.076,332.506H111.724V15h264.352   V332.506z M96.724,16.189v317.032c-6.142,1.18-11.883,3.811-16.822,7.715V39.323C79.902,28.528,86.973,19.358,96.724,16.189z    M104.223,396.155c-13.409,0-24.318-10.909-24.318-24.318c0-6.505,2.529-12.617,7.122-17.209   c4.592-4.592,10.699-7.121,17.196-7.121h22.913v48.648H104.223z M142.136,440.978v-93.472h25.897v93.472H142.136z M376.071,396.155   H183.034v-48.648h193.037V396.155z" id="svg_5" fill="#1082b7"/>
</g><g id="svg_6">
</g><g id="svg_7">
</g><g id="svg_8">
</g><g id="svg_9">
</g><g id="svg_10">
</g><g id="svg_11">
</g><g id="svg_12">
</g><g id="svg_13">
</g><g id="svg_14">
</g><g id="svg_15">
</g><g id="svg_16">
</g><g id="svg_17">
</g><g id="svg_18">
</g><g id="svg_19">
</g><g id="svg_20">
</g></g></svg>